<?xml version="1.0" encoding="utf-8"?>
<!-- Generator: Adobe Illustrator 24.3.0, SVG Export Plug-In . SVG Version: 6.00 Build 0)  -->
<svg version="1.1" id="Layer_1" xmlns="http://www.w3.org/2000/svg" xmlns:xlink="http://www.w3.org/1999/xlink" x="0px" y="0px"
	 viewBox="0 0 50 50" style="enable-background:new 0 0 50 50;" xml:space="preserve">
<style type="text/css">
	.st0{opacity:0.9;}
	.st1{fill:#FFFFFF;}
	.st2{opacity:0.6;}
	.st3{opacity:0.3;}
</style>
<g>
	<g class="st0">
		<path class="st1" d="M5,8.6c1.9,1,3.7,2,5.5,3c1.8,1.1,3.6,2.1,5.4,3.2c1.8,1.1,3.6,2.2,5.4,3.3c1.8,1.2,3.5,2.3,5.3,3.4l-1.1,0
			c1.6-1.1,3.2-2.3,4.8-3.4c1.6-1.1,3.2-2.2,4.8-3.3c3.2-2.2,6.5-4.3,9.9-6.3c-2.9,2.6-6,5.1-9,7.5c-1.5,1.2-3.1,2.4-4.6,3.6
			c-1.5,1.2-3.1,2.3-4.7,3.5l-0.5,0.4l-0.6-0.4c-1.8-1.1-3.5-2.3-5.3-3.5c-1.7-1.2-3.5-2.4-5.2-3.6c-1.7-1.2-3.4-2.5-5.1-3.7
			C8.3,11.2,6.6,10,5,8.6z"/>
	</g>
	<g class="st2">
		<path class="st1" d="M6.5,19.5c1.8,0.9,3.5,1.8,5.2,2.8c1.7,1,3.4,2,5,3c1.7,1,3.3,2,5,3.1c1.6,1.1,3.3,2.1,4.9,3.2l-1.1,0
			c1.5-1.1,2.9-2.1,4.4-3.2c1.5-1,3-2.1,4.5-3.1c3-2,6.1-4,9.2-5.8c-2.7,2.5-5.5,4.8-8.3,7c-1.4,1.1-2.8,2.2-4.3,3.3
			C29.5,31,28,32,26.6,33.1L26,33.5l-0.6-0.4c-1.6-1-3.2-2.2-4.9-3.2c-1.6-1.1-3.2-2.2-4.8-3.3c-1.6-1.1-3.2-2.3-4.7-3.5
			C9.5,21.9,8,20.8,6.5,19.5z"/>
	</g>
	<g class="st3">
		<path class="st1" d="M10.2,31.1c1.4,0.7,2.8,1.4,4.2,2.1c1.4,0.8,2.7,1.5,4.1,2.3c1.3,0.8,2.7,1.6,4,2.4c1.3,0.8,2.6,1.7,3.9,2.5
			l-1.1,0c1.2-0.8,2.3-1.7,3.5-2.5c1.2-0.8,2.4-1.6,3.6-2.4c2.4-1.6,4.9-3.1,7.5-4.5c-2.1,2-4.3,3.9-6.6,5.7
			c-1.1,0.9-2.3,1.8-3.4,2.7c-1.1,0.9-2.3,1.7-3.5,2.6l-0.5,0.4l-0.6-0.4c-1.3-0.8-2.6-1.7-3.9-2.6c-1.3-0.9-2.6-1.8-3.8-2.7
			c-1.3-0.9-2.5-1.9-3.7-2.8C12.6,33.1,11.4,32.2,10.2,31.1z"/>
	</g>
</g>
</svg>
