<?xml version="1.0" encoding="utf-8"?>
<!-- Generator: Adobe Illustrator 24.3.0, SVG Export Plug-In . SVG Version: 6.00 Build 0)  -->
<svg version="1.1" id="Layer_1" xmlns="http://www.w3.org/2000/svg" xmlns:xlink="http://www.w3.org/1999/xlink" x="0px" y="0px"
	 viewBox="0 0 388.6 185" style="enable-background:new 0 0 388.6 185;" xml:space="preserve">
<style type="text/css">
	.st0{fill:#5B3927;}
	.st1{fill:#9B6E56;}
	.st2{fill:#FFFFFF;}
	.st3{fill:#9B6E56;stroke:#FFFFFF;stroke-width:4;stroke-linecap:round;stroke-miterlimit:10;}
	.st4{fill:none;stroke:#000000;stroke-miterlimit:10;}
</style>
<g>
	<path class="st0" d="M177.1,101.3l6.6-24.6h11.2L190,94.6h4.5l4.8-17.9h11.2l-6.6,24.6H177.1z"/>
	<path class="st0" d="M242.2,83.4h-20.1l-0.6,2.2h15.6l-4.2,15.6h-26.8l1.8-6.7h15.6l0.6-2.2h-15.6l4.2-15.6H244L242.2,83.4z"/>
	<path class="st0" d="M257.8,83.4l-4.8,17.9h-11.2l4.8-17.9h-6.7l1.8-6.7h24.6l-1.8,6.7H257.8z"/>
	<path class="st0" d="M262,101.3l6.6-24.6h11.2l-4.8,17.9h8.9l-1.8,6.7H262z"/>
	<path class="st0" d="M297.3,94.6h11.2l-1.8,6.7h-22.3l6.6-24.6h22.3l-1.8,6.7h-11.2L297.3,94.6z M301.9,85.7h6.7l-8.5,6.7
		L301.9,85.7z"/>
	<path class="st0" d="M323.1,90.1l-3,11.2h-11.2l6.6-24.6h35.7l-17,13.4l8.2,11.2h-11.2L323.1,90.1z M323.1,90.1l8.5-6.7h-6.7
		L323.1,90.1z"/>
	<path class="st0" d="M376.2,83.4h-20.1l-0.6,2.2h15.6l-4.2,15.6h-26.8l1.8-6.7h15.6l0.6-2.2h-15.6l4.2-15.6H378L376.2,83.4z"/>
</g>
<g>
	<polygon class="st0" points="146.9,14.6 146.9,79.3 41.3,79.3 41.3,14.6 19.1,14.6 19.1,166.2 41.3,166.2 41.3,101.5 146.9,101.5 
		146.9,166.2 169.1,166.2 169.1,14.6 	"/>
	<g>
		<g>
			<path class="st1" d="M74.5,110.6l9.4-1.3c5.2-0.7,9.6-4.4,11.3-9.4l3.2-9.5l-38.6,6.8l-0.8,16.6l22.4,17l-0.7,29.5h38l0.1-31.2
				l2.5-2.5l3.1-19.1h-9.9l-0.6-5.1l-14,1.2v-2.5l-5.3,0.4"/>
			<path class="st2" d="M74.5,110.6l8.6-1.5c2.8-0.4,5.5-1.6,7.6-3.5c1-0.9,1.9-2.1,2.6-3.3c0.7-1.2,1.1-2.5,1.5-3.9l2.6-8.3
				l1.1,1.2L79.2,95L60,98.7l1.3-1.5c-0.2,5.6-0.4,11.1-0.6,16.6l-0.7-1.5c7.5,5.6,15,11.2,22.5,16.9l0.8,0.6l0,1
				c-0.2,9.8-0.4,19.7-0.6,29.5l-2-2l19,0.1l19,0.1l-1.8,1.8l0.2-15.6l0.3-15.6l0-0.6l0.4-0.4l2.5-2.4l-0.4,0.7l3.4-19l1,1.2
				l-9.9-0.2l-0.7,0l-0.1-0.6l-0.5-5.2l0.7,0.5l-14,0.9l-0.3,0l0-0.3l0.1-2.5l0.2,0.2l-5.3,0.3l5.2-0.6l0.2,0l0,0.2l0.1,2.5
				l-0.3-0.3l13.9-1.6l0.6-0.1l0.1,0.6l0.7,5.1l-0.7-0.7l9.9-0.2l1.2,0l-0.2,1.2l-2.7,19.2l-0.1,0.4l-0.3,0.3l-2.4,2.5l0.4-1
				l0.2,15.6l0.1,15.6l0,1.8l-1.8,0l-19,0.1l-19,0.1l-2,0l0-2c0.2-9.8,0.5-19.7,0.7-29.5l0.8,1.6c-7.5-5.7-14.9-11.5-22.3-17.2
				l-0.7-0.6l0.1-0.9c0.3-5.5,0.6-11.1,1-16.6l0.1-1.3l1.2-0.2l19.4-3.1l19.4-3l1.6-0.3l-0.5,1.5l-3,8.2c-0.5,1.3-1,2.8-1.9,4.1
				c-0.8,1.3-1.8,2.4-3,3.4c-2.3,2-5.3,3.1-8.2,3.3L74.5,110.6z"/>
		</g>
		<g>
			<polygon class="st1" points="67.1,61.6 66.7,95.9 82.7,93.1 82.7,60.2 			"/>
			<path class="st2" d="M67.1,61.6l0.5,9c0.2,2.9,0.3,5.8,0.4,8.6c0.2,2.8,0.2,5.6,0.3,8.4c0.1,2.8,0.1,5.5,0.2,8.3l-2.1-1.8
				c2.7-0.5,5.3-1,8-1.5c2.7-0.5,5.3-1,8-1.5l-1.6,2l0.1-8.2c0-2.7,0.1-5.5,0.2-8.2c0-2.7,0.1-5.5,0.3-8.2c0.1-2.7,0.2-5.5,0.4-8.2
				l1.3,1.2c-1.2,0-2.5,0.1-3.8,0.1l-3.9,0.1L67.1,61.6z M67.1,61.6l7.5-1.3l4-0.7c1.3-0.2,2.7-0.4,4-0.6l1.2-0.2l0.1,1.3
				c0.2,2.7,0.3,5.5,0.4,8.2c0.1,2.7,0.2,5.5,0.3,8.2c0.1,2.7,0.2,5.5,0.2,8.2l0.1,8.2l0,1.7l-1.7,0.3c-2.7,0.5-5.3,0.9-8,1.4
				c-2.7,0.5-5.3,0.9-8,1.3L64.8,98l0.1-2.1c0.1-3,0.2-5.9,0.4-8.9c0.2-2.9,0.3-5.9,0.5-8.7c0.2-2.9,0.4-5.7,0.6-8.5L67.1,61.6z"/>
		</g>
		<g>
			<polygon class="st1" points="98.3,64.5 82.7,65.1 82.7,93.1 98.3,90.4 95.1,101.6 99.8,101.2 			"/>
			<path class="st2" d="M98.3,64.5c-2.8,0.3-5.4,0.6-8,0.9c-2.6,0.3-5.1,0.6-7.6,0.8l1-1l0.3,7l0.2,7c0.2,4.7,0.2,9.3,0.3,14
				l-2.2-1.9l7.8-1.4c2.6-0.5,5.2-1,7.8-1.4l3.1-0.5l-0.9,3l-1.7,5.6c-0.6,1.9-1.1,3.8-1.7,5.6l-2-2.4l4.7-0.3l-1.6,1.8
				c-0.1-3-0.1-5.9-0.1-8.9c0-3,0-6,0.1-9l0.2-9.3L98.3,64.5z M98.3,64.5l0.9,8.8c0.3,3,0.6,6,0.9,9.1c0.3,3.1,0.6,6.2,0.8,9.3
				c0.3,3.1,0.5,6.3,0.6,9.5l0.1,1.7l-1.7,0.2l-4.7,0.5l-2.7,0.3l0.7-2.7c0.5-1.9,1.1-3.8,1.6-5.7l1.6-5.7l2.2,2.5
				c-2.6,0.5-5.2,0.9-7.8,1.4L83.1,95l-2.3,0.4l0.1-2.3c0.1-4.7,0.1-9.3,0.3-14l0.2-7l0.3-7l0-1.1l1,0c2.7,0,5.4,0.1,8,0.2
				L98.3,64.5z"/>
		</g>
		<g>
			<polygon class="st1" points="114.4,103.1 100.4,103.7 99.6,67.8 114.4,69.2 			"/>
			<path class="st2" d="M114.4,103.1l-6.7,0.9c-2.3,0.3-4.7,0.6-7.2,0.8l-1,0.1l-0.1-1.1c-0.2-3-0.5-6-0.6-9c-0.2-3-0.4-6-0.5-9
				c-0.1-3-0.3-6-0.4-9l-0.3-9l-0.1-2.3l2.2,0.2l7.4,0.8c2.5,0.2,4.9,0.5,7.4,0.8l1.7,0.2l0,1.6c-0.1,2.9-0.1,5.9-0.3,8.8
				c-0.1,2.9-0.2,5.8-0.4,8.6c-0.2,2.9-0.3,5.7-0.5,8.4L114.4,103.1z M114.4,103.1l-0.6-8.9c-0.2-2.9-0.4-5.7-0.5-8.5
				c-0.2-2.8-0.3-5.6-0.4-8.3c-0.1-2.7-0.2-5.5-0.3-8.2l1.7,1.8c-2.5-0.2-4.9-0.4-7.4-0.6l-7.4-0.6l2.2-2l0.1,9c0.1,3,0,6,0,9
				c0,3,0,6-0.1,9c0,3-0.1,6-0.2,9l-1.1-1c2.2,0,4.5,0.1,6.8,0.2C109.5,102.9,111.9,103,114.4,103.1z"/>
		</g>
		<polygon class="st3" points="125.6,106.7 114.4,106.4 115,74.1 129.2,77.2 		"/>
	</g>
	<g>
		<path class="st1" d="M104.3,117.3c0,0-1.1-10.1-7.3-15.4"/>
		<path class="st2" d="M104.3,117.3c-0.7-2.8-1.8-5.5-3.2-8c-0.7-1.2-1.5-2.3-2.4-3.4c-0.9-1-1.9-1.9-2.9-2.6l2.6-3
			c1.1,1.2,2,2.5,2.8,3.9c0.7,1.4,1.3,2.8,1.8,4.3C103.8,111.5,104.3,114.4,104.3,117.3z"/>
	</g>
</g>
<g>
	<path d="M194.3,129.5c-0.7,0-1.4-0.2-1.9-0.5c-0.6-0.3-1-0.7-1.3-1.3c-0.3-0.5-0.5-1.2-0.5-1.8v-7h1.1v7c0,0.5,0.1,0.9,0.3,1.3
		s0.5,0.7,0.9,0.9c0.4,0.2,0.8,0.3,1.4,0.3c0.5,0,1-0.1,1.4-0.3c0.4-0.2,0.7-0.5,0.9-0.9c0.2-0.4,0.3-0.8,0.3-1.3v-7h1.1v7
		c0,0.7-0.2,1.3-0.5,1.8c-0.3,0.5-0.7,1-1.3,1.3S195.1,129.5,194.3,129.5z"/>
	<path d="M206.1,129.3v-10.4h1l6.1,8.8h-0.4v-8.8h1.1v10.4h-1l-6.1-8.8h0.4v8.8H206.1z"/>
	<path d="M222,129.3v-10.4h1.1v10.4H222z"/>
	<path d="M233.9,129.3l-3.8-10.4h1.2l3.4,9.4h-0.2l3.3-9.4h1.2l-3.8,10.4H233.9z"/>
	<path d="M245.9,129.3v-10.4h6.7v1H247v3.6h5.3v1H247v3.7h5.6v1H245.9z"/>
	<path d="M260,129.3v-10.4h3.6c0.7,0,1.3,0.1,1.8,0.4c0.5,0.3,0.9,0.6,1.2,1.1c0.3,0.5,0.4,1,0.4,1.7c0,0.7-0.2,1.4-0.6,1.9
		c-0.4,0.5-0.9,0.9-1.6,1.1l2.4,4.2H266l-2.5-4.5l0.8,0.4h-3.1v4.1H260z M261.2,124.2h2.5c0.4,0,0.8-0.1,1.2-0.3s0.6-0.4,0.8-0.7
		c0.2-0.3,0.3-0.7,0.3-1.1s-0.1-0.8-0.3-1.1c-0.2-0.3-0.4-0.6-0.8-0.7s-0.7-0.3-1.2-0.3h-2.5V124.2z"/>
	<path d="M278.1,129.5c-0.7,0-1.3-0.1-1.8-0.4c-0.5-0.3-1-0.6-1.4-1s-0.6-0.9-0.8-1.4l1-0.4c0.2,0.7,0.6,1.2,1.1,1.6
		c0.5,0.4,1.1,0.6,1.8,0.6c0.4,0,0.8-0.1,1.2-0.2c0.3-0.1,0.6-0.3,0.8-0.6c0.2-0.3,0.3-0.6,0.3-0.9c0-0.5-0.1-0.9-0.4-1.2
		c-0.3-0.3-0.7-0.5-1.2-0.6l-1.9-0.6c-0.7-0.2-1.3-0.6-1.7-1.1c-0.4-0.5-0.6-1.1-0.6-1.7c0-0.6,0.1-1,0.4-1.5c0.3-0.4,0.6-0.8,1.1-1
		c0.5-0.2,1-0.4,1.6-0.4c0.6,0,1.2,0.1,1.7,0.3c0.5,0.2,0.9,0.5,1.3,0.9c0.3,0.4,0.6,0.8,0.7,1.2l-1,0.4c-0.2-0.6-0.6-1.1-1-1.4
		c-0.5-0.3-1-0.5-1.7-0.5c-0.4,0-0.8,0.1-1.1,0.2s-0.5,0.3-0.7,0.6c-0.2,0.3-0.3,0.6-0.3,0.9c0,0.4,0.1,0.8,0.4,1.2
		c0.3,0.3,0.7,0.6,1.2,0.8l1.7,0.5c0.8,0.2,1.4,0.6,1.9,1c0.4,0.5,0.6,1,0.6,1.7c0,0.6-0.1,1.1-0.4,1.5c-0.3,0.4-0.7,0.8-1.2,1
		C279.4,129.4,278.8,129.5,278.1,129.5z"/>
	<path d="M289.3,129.3v-10.4h1.1v10.4H289.3z"/>
	<path d="M300.3,129.3v-9.4h-2.9v-1h6.9v1h-2.9v9.4H300.3z"/>
	<path d="M313.8,129.3v-4.8l-3.7-5.6h1.2l3.2,4.9h-0.4l3.2-4.9h1.2l-3.6,5.6v4.8H313.8z"/>
</g>
<line class="st4" x1="332.5" y1="123.5" x2="371.6" y2="123.5"/>
</svg>
