<?xml version="1.0" encoding="utf-8"?>
<!-- Generator: Adobe Illustrator 24.3.0, SVG Export Plug-In . SVG Version: 6.00 Build 0)  -->
<svg version="1.1" id="Layer_1" xmlns="http://www.w3.org/2000/svg" xmlns:xlink="http://www.w3.org/1999/xlink" x="0px" y="0px"
	 viewBox="0 0 500 446" style="enable-background:new 0 0 500 446;" xml:space="preserve">
<style type="text/css">
	.st0{fill:#181818;}
	.st1{fill:#FFFFFF;}
	.st2{fill:#FFFFFF;stroke:#181818;stroke-width:4;stroke-linecap:round;stroke-miterlimit:10;}
	.st3{fill:none;stroke:#FFFFFF;stroke-miterlimit:10;}
</style>
<path class="st0" d="M85.1,6h330.4c40.8,0,73.9,33.1,73.9,73.9v280.3c0,40.8-33.1,73.9-73.9,73.9H85.1c-40.8,0-73.9-33.1-73.9-73.9
	V79.9C11.1,39.1,44.2,6,85.1,6z"/>
<g>
	<path class="st1" d="M148.7,364h-11.2l6.6-24.6h11.2L148.7,364z M155.1,348.3h2.2l2.4-8.9h11.2l-6.6,24.6h-11.2l2.4-8.9h-2.2
		L155.1,348.3z"/>
	<path class="st1" d="M166.5,364l6.6-24.6h11.2l-4.8,17.9h4.5l4.8-17.9h11.2l-6.6,24.6H166.5z"/>
	<path class="st1" d="M231.6,346.1h-20.1l-0.6,2.2h15.6l-4.2,15.6h-26.8l1.8-6.7H213l0.6-2.2H198l4.2-15.6h31.3L231.6,346.1z"/>
	<path class="st1" d="M247.3,346.1l-4.8,17.9h-11.2l4.8-17.9h-6.7l1.8-6.7h24.6l-1.8,6.7H247.3z"/>
	<path class="st1" d="M251.4,364l6.6-24.6h11.2l-4.8,17.9h8.9l-1.8,6.7H251.4z"/>
	<path class="st1" d="M286.7,357.3h11.2l-1.8,6.7h-22.3l6.6-24.6h22.3l-1.8,6.7h-11.2L286.7,357.3z M291.4,348.3h6.7l-8.5,6.7
		L291.4,348.3z"/>
	<path class="st1" d="M312.5,352.8l-3,11.2h-11.2l6.6-24.6h35.7l-17,13.4l8.2,11.2h-11.2L312.5,352.8z M312.5,352.8l8.5-6.7h-6.7
		L312.5,352.8z"/>
	<path class="st1" d="M365.7,346.1h-20.1l-0.6,2.2h15.6l-4.2,15.6h-26.8l1.8-6.7H347l0.6-2.2H332l4.2-15.6h31.3L365.7,346.1z"/>
</g>
<g>
	<polygon class="st1" points="331,69.9 331,169.1 169,169.1 169,69.9 135,69.9 135,302.3 169,302.3 169,203.1 331,203.1 331,302.3 
		365,302.3 365,69.9 	"/>
	<g>
		<g>
			<path class="st1" d="M220,217l14.4-2.1c8-1.1,14.7-6.7,17.3-14.4l4.9-14.6l-59.2,10.4l-1.3,25.5l34.3,26.1l-1,45.3h58.3l0.1-47.8
				l3.8-3.8l4.7-29.3h-15.1l-0.9-7.9l-21.4,1.9v-3.8l-8.1,0.7"/>
			<path class="st0" d="M220,217l13.2-2.2c4.4-0.6,8.6-2.3,11.8-5.3c1.6-1.5,3-3.2,4.1-5c1.1-1.9,1.8-3.9,2.5-6.1l4.1-12.8l1.1,1.2
				l-29.5,5.6l-29.6,5.5l1.3-1.5l-1.1,25.5l-0.7-1.5l34.4,26l0.8,0.6l0,1l-1,45.3l-2-2l29.1,0.1l29.1,0.1l-1.8,1.8l0.2-23.9
				l0.3-23.9l0-0.6l0.4-0.4l3.8-3.7l-0.4,0.7l5.1-29.2l1,1.2l-15.1-0.2l-0.7,0l-0.1-0.7l-0.8-7.9l0.7,0.5l-21.4,1.5l-0.3,0l0-0.3
				l0.1-3.8l0.2,0.2l-8.1,0.5l8-0.8l0.2,0l0,0.2l0.1,3.8l-0.3-0.3l21.4-2.3l0.6-0.1l0.1,0.6l1.1,7.9l-0.7-0.7l15.1-0.2l1.2,0
				l-0.2,1.2l-4.4,29.3l-0.1,0.4l-0.3,0.3l-3.7,3.8l0.4-1l0.2,23.9l0.1,23.9l0,1.8l-1.8,0l-29.1,0.1l-29.1,0.1l-2,0l0-2l1.1-45.3
				l0.8,1.6L195,223.3l-0.7-0.6l0.1-0.9l1.4-25.5l0.1-1.3l1.2-0.2l29.7-4.9l29.7-4.8l1.6-0.3l-0.5,1.5l-4.5,12.6
				c-0.7,2.1-1.5,4.3-2.8,6.2c-1.2,1.9-2.7,3.7-4.5,5.2c-3.5,3-7.9,4.7-12.4,5.1L220,217z"/>
		</g>
		<g>
			<polygon class="st1" points="208.6,141.9 208.1,194.5 232.6,190.2 232.6,139.7 			"/>
			<path class="st0" d="M208.6,141.9l0.5,13.5l0.4,13.2c0.1,4.4,0.2,8.7,0.3,13c0.1,4.3,0.1,8.6,0.1,12.9l-2.1-1.8
				c4.1-0.8,8.2-1.5,12.2-2.3l12.3-2.2l-1.6,2l0.1-12.6c0-4.2,0.1-8.4,0.2-12.6c0-4.2,0.1-8.4,0.3-12.6c0.1-4.2,0.2-8.4,0.4-12.6
				l1.3,1.2c-1.9,0.1-3.9,0.2-5.8,0.3l-5.9,0.3L208.6,141.9z M208.6,141.9l11.7-1.7l6-0.8c2-0.3,4.1-0.5,6.1-0.8l1.2-0.2l0,1.3
				c0.2,4.2,0.3,8.4,0.4,12.6c0.1,4.2,0.2,8.4,0.3,12.6c0.1,4.2,0.2,8.4,0.2,12.6l0.1,12.6l0,1.7l-1.7,0.3l-12.3,2.1
				c-4.1,0.7-8.2,1.4-12.3,2l-2.2,0.3l0.1-2.2c0.1-4.5,0.2-9,0.4-13.4c0.2-4.5,0.3-8.9,0.6-13.3c0.2-4.4,0.4-8.8,0.7-13.1
				L208.6,141.9z"/>
		</g>
		<g>
			<polygon class="st1" points="256.5,146.3 232.6,147.3 232.6,190.2 256.5,186 251.5,203.3 258.7,202.7 			"/>
			<path class="st0" d="M256.5,146.3l-12.2,1c-4,0.3-7.9,0.7-11.7,1l1-1L234,158l0.2,10.7c0.2,7.2,0.2,14.3,0.3,21.5l-2.2-1.9
				l12-2.2c4-0.7,8-1.5,12-2.1l3.1-0.5l-0.9,3l-2.5,8.6c-0.9,2.9-1.7,5.8-2.6,8.6l-2-2.4l7.2-0.5l-1.6,1.8
				c-0.1-4.6-0.2-9.2-0.3-13.8c-0.1-4.6-0.1-9.3-0.1-13.9L256.5,146.3z M256.5,146.3l1.1,13.7l1.1,14c0.4,4.7,0.7,9.5,1,14.2
				c0.3,4.8,0.6,9.6,0.8,14.4l0.1,1.7l-1.7,0.2l-7.2,0.7l-2.7,0.3l0.7-2.7c0.8-2.9,1.6-5.8,2.5-8.7l2.5-8.7l2.2,2.5
				c-4,0.7-8,1.4-12,2.1l-12,2l-2.3,0.4l0-2.3c0.1-7.2,0.1-14.3,0.3-21.5l0.2-10.7l0.3-10.7l0-1l1,0c4.1,0,8.2,0,12.2,0L256.5,146.3
				z"/>
		</g>
		<g>
			<polygon class="st1" points="281.1,205.5 259.7,206.5 258.5,151.4 281.1,153.6 			"/>
			<path class="st0" d="M281.1,205.5l-10.5,1c-3.6,0.3-7.2,0.7-10.9,1l-1.1,0.1l-0.1-1.1c-0.3-4.6-0.5-9.2-0.7-13.8
				c-0.2-4.6-0.4-9.2-0.6-13.8c-0.2-4.6-0.4-9.2-0.5-13.8l-0.4-13.8l-0.1-2.3l2.2,0.2l11.3,1.1c3.8,0.4,7.5,0.8,11.3,1.2l1.7,0.2
				l0,1.6c-0.1,4.4-0.1,8.9-0.3,13.3c-0.1,4.4-0.2,8.8-0.4,13.2c-0.2,4.4-0.3,8.7-0.5,12.9L281.1,205.5z M281.1,205.5l-0.6-13.4
				l-0.5-13.1c-0.2-4.3-0.3-8.6-0.4-12.8c-0.1-4.3-0.2-8.5-0.3-12.7l1.7,1.8c-3.8-0.3-7.6-0.6-11.3-1l-11.3-1l2.2-2l0.2,13.8
				c0.1,4.6,0.1,9.2,0.1,13.8c0.1,4.6,0,9.2,0,13.8c0,4.6-0.1,9.2-0.1,13.8l-1.1-1c3.4,0,6.9,0,10.5,0L281.1,205.5z"/>
		</g>
		<polygon class="st2" points="298.4,211.1 281.1,210.5 282.1,161.1 303.8,165.8 		"/>
	</g>
	<g>
		<path class="st1" d="M265.7,227.4c0,0-1.7-15.5-11.1-23.7"/>
		<path class="st0" d="M265.7,227.4c-0.4-2.2-1.1-4.3-1.8-6.4c-0.8-2.1-1.6-4.1-2.6-6c-1-1.9-2.2-3.7-3.5-5.4
			c-1.3-1.7-2.8-3.1-4.4-4.3l2.6-3c1.7,1.8,3.1,3.6,4.3,5.7c1.1,2,2.1,4.1,2.9,6.3c0.7,2.2,1.3,4.3,1.8,6.6
			C265.3,222.9,265.6,225.1,265.7,227.4z"/>
	</g>
</g>
<g>
	<path class="st1" d="M190.3,388.2c-0.7,0-1.4-0.2-1.9-0.5c-0.6-0.3-1-0.7-1.3-1.3c-0.3-0.5-0.5-1.2-0.5-1.8v-7h1.1v7
		c0,0.5,0.1,0.9,0.3,1.3s0.5,0.7,0.9,0.9c0.4,0.2,0.8,0.3,1.4,0.3c0.5,0,1-0.1,1.4-0.3c0.4-0.2,0.7-0.5,0.9-0.9
		c0.2-0.4,0.3-0.8,0.3-1.3v-7h1.1v7c0,0.7-0.2,1.3-0.5,1.8c-0.3,0.5-0.7,1-1.3,1.3S191,388.2,190.3,388.2z"/>
	<path class="st1" d="M202,388v-10.4h1l6.1,8.8h-0.4v-8.8h1.1V388h-1l-6.1-8.8h0.4v8.8H202z"/>
	<path class="st1" d="M217.9,388v-10.4h1.1V388H217.9z"/>
	<path class="st1" d="M229.8,388l-3.8-10.4h1.2l3.4,9.4h-0.2l3.3-9.4h1.2L231,388H229.8z"/>
	<path class="st1" d="M241.8,388v-10.4h6.7v1h-5.6v3.6h5.3v1h-5.3v3.7h5.6v1H241.8z"/>
	<path class="st1" d="M256,388v-10.4h3.6c0.7,0,1.3,0.1,1.8,0.4c0.5,0.3,0.9,0.6,1.2,1.1c0.3,0.5,0.4,1,0.4,1.7
		c0,0.7-0.2,1.4-0.6,1.9c-0.4,0.5-0.9,0.9-1.6,1.1l2.4,4.2h-1.3l-2.5-4.5l0.8,0.4h-3.1v4.1H256z M257.1,382.9h2.5
		c0.4,0,0.8-0.1,1.2-0.3s0.6-0.4,0.8-0.7c0.2-0.3,0.3-0.7,0.3-1.1s-0.1-0.8-0.3-1.1c-0.2-0.3-0.4-0.6-0.8-0.7s-0.7-0.3-1.2-0.3h-2.5
		V382.9z"/>
	<path class="st1" d="M274.1,388.2c-0.7,0-1.3-0.1-1.8-0.4c-0.5-0.3-1-0.6-1.4-1s-0.6-0.9-0.8-1.4l1-0.4c0.2,0.7,0.6,1.2,1.1,1.6
		c0.5,0.4,1.1,0.6,1.8,0.6c0.4,0,0.8-0.1,1.2-0.2c0.3-0.1,0.6-0.3,0.8-0.6c0.2-0.3,0.3-0.6,0.3-0.9c0-0.5-0.1-0.9-0.4-1.2
		c-0.3-0.3-0.7-0.5-1.2-0.6l-1.9-0.6c-0.7-0.2-1.3-0.6-1.7-1.1c-0.4-0.5-0.6-1.1-0.6-1.7c0-0.6,0.1-1,0.4-1.5c0.3-0.4,0.6-0.8,1.1-1
		c0.5-0.2,1-0.4,1.6-0.4c0.6,0,1.2,0.1,1.7,0.3c0.5,0.2,0.9,0.5,1.3,0.9c0.3,0.4,0.6,0.8,0.7,1.2l-1,0.4c-0.2-0.6-0.6-1.1-1-1.4
		c-0.5-0.3-1-0.5-1.7-0.5c-0.4,0-0.8,0.1-1.1,0.2s-0.5,0.3-0.7,0.6c-0.2,0.3-0.3,0.6-0.3,0.9c0,0.4,0.1,0.8,0.4,1.2
		c0.3,0.3,0.7,0.6,1.2,0.8l1.7,0.5c0.8,0.2,1.4,0.6,1.9,1c0.4,0.5,0.6,1,0.6,1.7c0,0.6-0.1,1.1-0.4,1.5c-0.3,0.4-0.7,0.8-1.2,1
		C275.3,388,274.7,388.2,274.1,388.2z"/>
	<path class="st1" d="M285.2,388v-10.4h1.1V388H285.2z"/>
	<path class="st1" d="M296.2,388v-9.4h-2.9v-1h6.9v1h-2.9v9.4H296.2z"/>
	<path class="st1" d="M309.7,388v-4.8l-3.7-5.6h1.2l3.2,4.9h-0.4l3.2-4.9h1.2l-3.6,5.6v4.8H309.7z"/>
</g>
<line class="st3" x1="137.5" y1="382.2" x2="176.5" y2="382.2"/>
<line class="st3" x1="328.5" y1="382.2" x2="367.5" y2="382.2"/>
<g>
	<g>
		<path class="st1" d="M233.1,312.4c-0.3,0-0.5-0.1-0.8-0.2c-0.2-0.1-0.5-0.2-0.6-0.4c-0.2-0.2-0.3-0.4-0.4-0.7l0.8-0.3
			c0.1,0.2,0.3,0.4,0.5,0.6c0.2,0.1,0.4,0.2,0.7,0.2c0.1,0,0.2,0,0.3-0.1c0.1,0,0.2-0.1,0.2-0.2c0.1-0.1,0.1-0.2,0.1-0.2
			c0-0.1,0-0.2-0.1-0.3c-0.1-0.1-0.2-0.1-0.3-0.2l-0.9-0.3c-0.4-0.1-0.6-0.3-0.8-0.5c-0.2-0.2-0.3-0.5-0.3-0.8
			c0-0.3,0.1-0.5,0.2-0.7c0.1-0.2,0.3-0.4,0.5-0.5c0.2-0.1,0.5-0.2,0.8-0.2c0.3,0,0.5,0,0.7,0.1s0.4,0.2,0.6,0.4s0.3,0.4,0.4,0.6
			l-0.8,0.3c-0.1-0.2-0.2-0.4-0.4-0.5c-0.2-0.1-0.4-0.2-0.6-0.2c-0.1,0-0.2,0-0.3,0.1c-0.1,0-0.2,0.1-0.2,0.2s-0.1,0.2-0.1,0.3
			c0,0.1,0,0.2,0.1,0.3c0.1,0.1,0.2,0.1,0.3,0.2l0.9,0.3c0.4,0.1,0.6,0.3,0.8,0.5c0.2,0.2,0.3,0.5,0.3,0.8c0,0.3-0.1,0.5-0.2,0.7
			c-0.1,0.2-0.3,0.4-0.6,0.5C233.7,312.4,233.5,312.4,233.1,312.4z"/>
		<path class="st1" d="M237.8,312.3v-4.5h0.9v4.5H237.8z"/>
		<path class="st1" d="M241.9,312.3v-4.5h0.7l2.4,3.2l-0.4,0.1v-3.3h0.9v4.5h-0.7l-2.4-3.2l0.3-0.1v3.3H241.9z"/>
		<path class="st1" d="M250.9,312.4c-0.3,0-0.6-0.1-0.9-0.2c-0.3-0.1-0.5-0.3-0.7-0.5s-0.4-0.5-0.5-0.7c-0.1-0.3-0.2-0.6-0.2-0.9
			s0.1-0.6,0.2-0.9c0.1-0.3,0.3-0.5,0.5-0.7c0.2-0.2,0.4-0.4,0.7-0.5s0.6-0.2,0.9-0.2c0.3,0,0.6,0.1,0.9,0.2
			c0.3,0.1,0.5,0.3,0.7,0.4c0.2,0.2,0.3,0.4,0.4,0.6l-0.8,0.4c-0.1-0.2-0.2-0.4-0.4-0.5c-0.2-0.1-0.4-0.2-0.7-0.2
			c-0.3,0-0.5,0.1-0.7,0.2c-0.2,0.1-0.4,0.3-0.5,0.5c-0.1,0.2-0.2,0.5-0.2,0.8s0.1,0.5,0.2,0.8c0.1,0.2,0.3,0.4,0.5,0.5
			c0.2,0.1,0.4,0.2,0.7,0.2c0.3,0,0.5-0.1,0.7-0.2c0.2-0.1,0.3-0.3,0.4-0.5l0.8,0.4c-0.1,0.2-0.2,0.4-0.4,0.6
			c-0.2,0.2-0.4,0.3-0.7,0.4C251.5,312.4,251.2,312.4,250.9,312.4z"/>
		<path class="st1" d="M255.8,312.3v-4.5h3v0.8h-2.1v1h2v0.8h-2v1h2.1v0.8H255.8z"/>
		<path class="st1" d="M265.1,312.3v-0.7l1.2-1.2c0.2-0.2,0.4-0.4,0.5-0.6s0.2-0.3,0.3-0.4c0-0.1,0.1-0.2,0.1-0.3
			c0-0.2-0.1-0.3-0.2-0.4c-0.1-0.1-0.2-0.1-0.4-0.1c-0.2,0-0.3,0-0.4,0.1c-0.1,0.1-0.2,0.2-0.3,0.4l-0.8-0.3c0-0.2,0.1-0.4,0.3-0.6
			c0.2-0.2,0.3-0.3,0.6-0.4c0.2-0.1,0.4-0.1,0.7-0.1c0.3,0,0.6,0.1,0.8,0.2c0.2,0.1,0.4,0.3,0.5,0.4c0.1,0.2,0.2,0.4,0.2,0.7
			c0,0.2,0,0.3-0.1,0.5c-0.1,0.2-0.1,0.3-0.3,0.5c-0.1,0.2-0.3,0.3-0.4,0.5l-1,1.1h1.8v0.8H265.1z"/>
		<path class="st1" d="M272.9,312.4c-0.4,0-0.7-0.1-0.9-0.3c-0.3-0.2-0.5-0.5-0.6-0.8c-0.2-0.3-0.2-0.8-0.2-1.2
			c0-0.5,0.1-0.9,0.2-1.2c0.1-0.3,0.4-0.6,0.6-0.8c0.3-0.2,0.6-0.3,0.9-0.3c0.4,0,0.7,0.1,1,0.3c0.3,0.2,0.5,0.5,0.6,0.8
			c0.2,0.3,0.2,0.7,0.2,1.2s-0.1,0.9-0.2,1.2c-0.1,0.3-0.4,0.6-0.6,0.8C273.6,312.3,273.2,312.4,272.9,312.4z M272.9,311.6
			c0.2,0,0.3-0.1,0.5-0.2s0.2-0.3,0.3-0.5c0.1-0.2,0.1-0.5,0.1-0.8s0-0.6-0.1-0.8c-0.1-0.2-0.2-0.4-0.3-0.5s-0.3-0.2-0.5-0.2
			c-0.2,0-0.3,0.1-0.5,0.2s-0.2,0.3-0.3,0.5s-0.1,0.5-0.1,0.8c0,0.3,0,0.6,0.1,0.8s0.2,0.4,0.3,0.5S272.7,311.6,272.9,311.6z"/>
		<path class="st1" d="M277.6,312.3v-0.7l1.2-1.2c0.2-0.2,0.4-0.4,0.5-0.6s0.2-0.3,0.3-0.4c0-0.1,0.1-0.2,0.1-0.3
			c0-0.2-0.1-0.3-0.2-0.4c-0.1-0.1-0.2-0.1-0.4-0.1c-0.2,0-0.3,0-0.4,0.1c-0.1,0.1-0.2,0.2-0.3,0.4l-0.8-0.3c0-0.2,0.1-0.4,0.3-0.6
			c0.2-0.2,0.3-0.3,0.6-0.4s0.4-0.1,0.7-0.1c0.3,0,0.6,0.1,0.8,0.2c0.2,0.1,0.4,0.3,0.5,0.4c0.1,0.2,0.2,0.4,0.2,0.7
			c0,0.2,0,0.3-0.1,0.5c-0.1,0.2-0.1,0.3-0.3,0.5c-0.1,0.2-0.3,0.3-0.4,0.5l-1,1.1h1.8v0.8H277.6z"/>
		<path class="st1" d="M284.4,312.3v-3.7h-0.9v-0.8h1.8v4.5H284.4z"/>
	</g>
</g>
</svg>
